# xmcd
#
# Track frame offsets: 
#        150
#        10056
#        31837
#        46058
#        72633
#        88846
#        98610
#        111718
#        146971
#        156348
#        172063
#        181556
#
# Disc length: 2679 seconds
#
# Revision: 0
# Processed by: cddbd v1.5.2PL0 Copyright (c) Steve Scherf et al.
# Submitted via: ExactAudioCopyFreeDBPlugin 1.0
#
DISCID=a20a750c
DTITLE=Lil' Red and The Roosters - L'odéon JRC Live
DYEAR=2016
DGENRE=Blues
TTITLE0=Donkey Strut
TTITLE1=The Come Back
TTITLE2=Ain't Your Pet No More
TTITLE3=Why Don't You Do Right
TTITLE4=Chicken Scratch
TTITLE5=Nothin' Clickin' Chicken
TTITLE6=Black Cat Fever
TTITLE7=Occupy My Mind
TTITLE8=Gritty Pretty
TTITLE9=Narcissistic Blues
TTITLE10=Trouble No More
TTITLE11=Looking Good
EXTD=
EXTT0=
EXTT1=
EXTT2=
EXTT3=
EXTT4=
EXTT5=
EXTT6=
EXTT7=
EXTT8=
EXTT9=
EXTT10=
EXTT11=
PLAYORDER=
